<svg xmlns="http://www.w3.org/2000/svg" width="512" height="512" viewBox="0 0 512 512">
  <defs>
    <linearGradient id="bg" x1="0" y1="0" x2="1" y2="1">
      <stop offset="0" stop-color="#0a0a0a"/>
      <stop offset="1" stop-color="#1a1f00"/>
    </linearGradient>
    <linearGradient id="glove" x1="0" y1="0" x2="0" y2="1">
      <stop offset="0" stop-color="#e6ff33"/>
      <stop offset="1" stop-color="#aacc00"/>
    </linearGradient>
    <filter id="glow" x="-30%" y="-30%" width="160%" height="160%">
      <feGaussianBlur stdDeviation="9" result="b"/>
      <feMerge><feMergeNode in="b"/><feMergeNode in="SourceGraphic"/></feMerge>
    </filter>
  </defs>

  <rect x="0" y="0" width="512" height="512" rx="112" fill="url(#bg)"/>
  <rect x="8" y="8" width="496" height="496" rx="106" fill="none" stroke="#ccff00" stroke-width="6" opacity="0.5"/>

  <g filter="url(#glow)">
    <g transform="translate(256 268) rotate(-12)">
      <path fill="url(#glove)" stroke="#1a1f00" stroke-width="8" stroke-linejoin="round"
            d="M-118 -40
               C -132 -118 -70 -150 -8 -150
               C 70 -150 132 -104 132 -18
               C 132 70 70 132 -14 132
               C -86 132 -118 96 -126 50
               C -150 50 -150 -2 -126 -2
               Z"/>
      <path fill="url(#glove)" stroke="#1a1f00" stroke-width="8" stroke-linejoin="round"
            d="M-118 6
               C -156 6 -160 -56 -120 -58
               C -96 -60 -86 -34 -92 -10
               Z"/>
      <path fill="none" stroke="#1a1f00" stroke-width="7" stroke-linecap="round" opacity="0.55"
            d="M44 -132 C 70 -70 70 60 38 122"/>
      <rect x="-70" y="116" width="118" height="56" rx="20" fill="#0a0a0a" stroke="#ccff00" stroke-width="7"/>
      <line x1="-44" y1="144" x2="22" y2="144" stroke="#ccff00" stroke-width="7" stroke-linecap="round"/>
    </g>
  </g>
</svg>
